<mxfile host="app.diagrams.net" modified="2023-08-16T17:34:03.332Z" agent="Mozilla/5.0 (Macintosh; Intel Mac OS X 10_15_7) AppleWebKit/537.36 (KHTML, like Gecko) Chrome/114.0.0.0 Safari/537.36" version="21.3.6" etag="QjZxq1-NKH1We6gfO0wd" type="github">
  <diagram name="Page-1" id="8eEsKtbXniwErJptZ8fE">
    <mxGraphModel>
      <root>
        <mxCell id="0" />
        <mxCell id="1" parent="0" />
      </root>
    </mxGraphModel>
  </diagram>
</mxfile>
